<svg id="visual" viewBox="0 0 900 600" width="900" height="600" xmlns="http://www.w3.org/2000/svg" xmlns:xlink="http://www.w3.org/1999/xlink" version="1.1"><g><g transform="translate(164 484)"><path d="M9 -2.9C10.2 0.6 8.6 5.1 5.4 7.3C2.3 9.6 -2.4 9.6 -5.3 7.4C-8.2 5.3 -9.3 0.9 -8.1 -2.6C-7 -6.2 -3.5 -9 0.2 -9.1C3.9 -9.2 7.9 -6.5 9 -2.9Z" fill="#fafafa"></path></g><g transform="translate(449 332)"><path d="M6.2 -1.9C7.1 0.7 6.2 4 3.8 5.9C1.4 7.7 -2.5 8.2 -5.1 6.5C-7.7 4.7 -9 0.6 -8 -2.2C-6.9 -5.1 -3.5 -6.9 -0.4 -6.7C2.6 -6.6 5.3 -4.6 6.2 -1.9Z" fill="#fafafa"></path></g><g transform="translate(502 57)"><path d="M2.1 -0.7C2.4 0.1 2 1.1 1.3 1.6C0.6 2.1 -0.4 2 -1.1 1.5C-1.8 1 -2.1 0.1 -1.9 -0.7C-1.7 -1.4 -0.8 -2 0 -2C0.9 -2.1 1.8 -1.5 2.1 -0.7Z" fill="#fafafa"></path></g><g transform="translate(161 547)"><path d="M6.4 -1.8C7.4 1 6.7 4.6 4.5 6.3C2.2 7.9 -1.6 7.6 -4.2 5.7C-6.9 3.8 -8.5 0.3 -7.6 -2.4C-6.7 -5 -3.3 -6.8 -0.3 -6.7C2.7 -6.6 5.4 -4.6 6.4 -1.8Z" fill="#fafafa"></path></g><g transform="translate(474 260)"><path d="M2.1 -0.7C2.4 0.1 2 1.2 1.3 1.7C0.6 2.1 -0.4 2 -1.1 1.5C-1.8 1 -2.2 0.1 -1.9 -0.7C-1.7 -1.5 -0.9 -2.2 0 -2.2C0.9 -2.2 1.9 -1.6 2.1 -0.7Z" fill="#fafafa"></path></g><g transform="translate(674 25)"><path d="M3.5 -1.2C3.9 0.3 3.3 2 2.1 2.9C0.9 3.8 -0.9 3.8 -2.3 2.8C-3.7 1.9 -4.7 0 -4.2 -1.5C-3.8 -3 -1.9 -4.1 -0.2 -4.1C1.5 -4 3 -2.7 3.5 -1.2Z" fill="#fafafa"></path></g><g transform="translate(439 586)"><path d="M4 -1.2C4.6 0.4 3.9 2.4 2.5 3.4C1.1 4.4 -1 4.4 -2.3 3.4C-3.6 2.4 -4 0.5 -3.4 -1.1C-2.9 -2.6 -1.4 -3.8 0.1 -3.9C1.7 -3.9 3.5 -2.8 4 -1.2Z" fill="#fafafa"></path></g><g transform="translate(335 146)"><path d="M4 -1.2C4.6 0.5 4 2.6 2.7 3.5C1.4 4.4 -0.7 4.1 -2.1 3C-3.5 2 -4.3 0.2 -3.8 -1.4C-3.4 -2.9 -1.7 -4.1 0 -4.1C1.7 -4.1 3.5 -2.9 4 -1.2Z" fill="#fafafa"></path></g><g transform="translate(305 227)"><path d="M5 -1.6C5.7 0.3 4.8 2.8 3 4.1C1.3 5.3 -1.3 5.3 -2.8 4.2C-4.3 3 -4.7 0.7 -4 -1.2C-3.4 -3.1 -1.7 -4.6 0.3 -4.7C2.2 -4.8 4.4 -3.5 5 -1.6Z" fill="#fafafa"></path></g><g transform="translate(838 514)"><path d="M7.6 -2.9C8.5 0 6.7 3.4 4.1 5.1C1.6 6.8 -1.8 6.9 -4.3 5.3C-6.8 3.6 -8.5 0.1 -7.6 -2.8C-6.8 -5.7 -3.4 -8.2 0 -8.2C3.4 -8.2 6.8 -5.8 7.6 -2.9Z" fill="#fafafa"></path></g><g transform="translate(686 378)"><path d="M1.9 -0.6C2.1 0.1 1.8 1.1 1.1 1.6C0.4 2.1 -0.6 2.1 -1.2 1.7C-1.9 1.2 -2.1 0.2 -1.8 -0.6C-1.6 -1.4 -0.8 -2 0 -2C0.8 -2 1.6 -1.4 1.9 -0.6Z" fill="#fafafa"></path></g><g transform="translate(268 191)"><path d="M7.1 -2.2C7.9 0.2 6.4 3.5 4 5.2C1.5 6.9 -1.9 7.1 -4.1 5.5C-6.4 3.9 -7.5 0.5 -6.6 -1.9C-5.7 -4.4 -2.9 -6 0.1 -6C3.2 -6.1 6.3 -4.6 7.1 -2.2Z" fill="#fafafa"></path></g><g transform="translate(647 190)"><path d="M1.9 -0.7C2.2 0.1 1.8 1 1.1 1.4C0.5 1.9 -0.4 1.9 -1.1 1.4C-1.8 0.9 -2.2 0 -2 -0.8C-1.8 -1.6 -0.9 -2.2 0 -2.2C0.9 -2.2 1.7 -1.5 1.9 -0.7Z" fill="#fafafa"></path></g><g transform="translate(507 418)"><path d="M2.3 -0.8C2.7 0.4 2.5 1.8 1.6 2.4C0.8 3.1 -0.8 3.1 -1.7 2.4C-2.7 1.7 -3.1 0.3 -2.7 -0.9C-2.3 -2.1 -1.1 -3 -0.1 -3C1 -3 2 -2 2.3 -0.8Z" fill="#fafafa"></path></g><g transform="translate(193 445)"><path d="M3.3 -1.2C3.8 0.3 3.2 2 2 3C0.7 4 -1.3 4.2 -2.6 3.3C-4 2.4 -4.7 0.3 -4.2 -1.3C-3.6 -3 -1.8 -4.2 -0.2 -4.1C1.4 -4 2.9 -2.7 3.3 -1.2Z" fill="#fafafa"></path></g><g transform="translate(687 77)"><path d="M6.4 -1.7C7.4 1.1 6.8 4.9 4.5 6.6C2.2 8.4 -1.8 8.2 -4.3 6.3C-6.8 4.4 -7.7 0.8 -6.8 -2C-5.8 -4.7 -2.9 -6.5 -0.1 -6.5C2.7 -6.5 5.3 -4.5 6.4 -1.7Z" fill="#fafafa"></path></g><g transform="translate(345 551)"><path d="M4.2 -1.3C4.9 0.6 4.4 3 2.8 4.2C1.3 5.4 -1.3 5.4 -3.1 4.1C-4.8 2.9 -5.7 0.3 -5.1 -1.6C-4.4 -3.5 -2.2 -4.9 -0.2 -4.8C1.8 -4.7 3.6 -3.2 4.2 -1.3Z" fill="#fafafa"></path></g><g transform="translate(240 445)"><path d="M4 -1.4C4.5 0.3 3.8 2.2 2.3 3.3C0.9 4.4 -1.3 4.6 -2.7 3.6C-4 2.6 -4.6 0.5 -4 -1.3C-3.4 -3 -1.7 -4.3 0 -4.3C1.7 -4.3 3.5 -3 4 -1.4Z" fill="#fafafa"></path></g><g transform="translate(693 204)"><path d="M4.9 -1.3C5.7 0.8 5.2 3.6 3.4 4.9C1.7 6.2 -1.2 5.9 -3.1 4.5C-5.1 3 -6 0.4 -5.3 -1.6C-4.6 -3.6 -2.3 -4.9 -0.1 -4.8C2.1 -4.8 4.1 -3.4 4.9 -1.3Z" fill="#fafafa"></path></g><g transform="translate(802 285)"><path d="M6.1 -1.9C6.9 0.6 6 3.8 3.9 5.3C1.7 6.9 -1.6 6.9 -4 5.2C-6.4 3.5 -8 0.2 -7.1 -2.3C-6.3 -4.8 -3.2 -6.5 -0.3 -6.4C2.6 -6.3 5.3 -4.4 6.1 -1.9Z" fill="#fafafa"></path></g><g transform="translate(162 247)"><path d="M4.7 -1.7C5.3 0.3 4.4 2.6 2.7 3.9C0.9 5.2 -1.7 5.5 -3.5 4.3C-5.3 3.1 -6.4 0.3 -5.7 -1.8C-5 -4 -2.5 -5.7 -0.2 -5.6C2 -5.5 4.1 -3.8 4.7 -1.7Z" fill="#fafafa"></path></g><g transform="translate(654 114)"><path d="M5.3 -1.5C6.1 0.8 5.5 3.8 3.6 5.3C1.7 6.8 -1.5 6.7 -3.7 5.1C-5.9 3.5 -7.1 0.4 -6.3 -1.9C-5.5 -4.1 -2.7 -5.6 -0.2 -5.5C2.2 -5.4 4.5 -3.8 5.3 -1.5Z" fill="#fafafa"></path></g><g transform="translate(881 436)"><path d="M3 -0.9C3.5 0.4 3.1 2 2 2.8C1 3.5 -0.7 3.4 -1.7 2.6C-2.8 1.8 -3.3 0.3 -2.9 -0.9C-2.5 -2.1 -1.2 -3 0 -3C1.3 -3 2.6 -2.1 3 -0.9Z" fill="#fafafa"></path></g><g transform="translate(276 361)"><path d="M1.9 -0.5C2.2 0.3 2 1.3 1.3 1.8C0.7 2.2 -0.4 2.1 -1 1.6C-1.7 1 -2 0.2 -1.7 -0.6C-1.5 -1.3 -0.7 -1.9 0 -1.9C0.8 -1.9 1.6 -1.4 1.9 -0.5Z" fill="#fafafa"></path></g><g transform="translate(549 224)"><path d="M5 -1.7C5.6 0.2 4.6 2.6 3 3.7C1.3 4.8 -0.9 4.6 -2.4 3.5C-3.9 2.3 -4.6 0.3 -4.1 -1.5C-3.6 -3.2 -1.8 -4.7 0.2 -4.8C2.2 -4.9 4.4 -3.5 5 -1.7Z" fill="#fafafa"></path></g><g transform="translate(125 591)"><path d="M7.4 -2.4C8.3 0.5 7 4.1 4.4 6C1.8 7.9 -2.1 8 -4.8 6.2C-7.4 4.3 -8.9 0.5 -7.9 -2.5C-6.9 -5.4 -3.4 -7.5 -0.1 -7.4C3.2 -7.4 6.4 -5.3 7.4 -2.4Z" fill="#fafafa"></path></g><g transform="translate(778 335)"><path d="M2 -0.7C2.2 0.1 1.8 1 1.1 1.5C0.4 2 -0.5 2.1 -1.3 1.6C-2 1.1 -2.4 0.1 -2.1 -0.7C-1.9 -1.5 -0.9 -2 0 -2C0.9 -2 1.8 -1.4 2 -0.7Z" fill="#fafafa"></path></g><g transform="translate(451 550)"><path d="M2.9 -0.8C3.4 0.5 3.1 2.2 2.1 2.9C1.1 3.7 -0.7 3.5 -1.8 2.6C-2.9 1.8 -3.5 0.2 -3.1 -1C-2.7 -2.1 -1.3 -3 -0.1 -3C1.2 -2.9 2.4 -2.1 2.9 -0.8Z" fill="#fafafa"></path></g><g transform="translate(880 185)"><path d="M2 -0.7C2.2 0.2 1.9 1.2 1.2 1.7C0.5 2.2 -0.6 2.3 -1.3 1.8C-2 1.3 -2.2 0.2 -2 -0.7C-1.7 -1.5 -0.8 -2.3 0 -2.3C0.9 -2.3 1.7 -1.5 2 -0.7Z" fill="#fafafa"></path></g><g transform="translate(532 20)"><path d="M3.5 -0.9C4.1 0.6 3.8 2.7 2.5 3.6C1.3 4.5 -0.9 4.3 -2.3 3.3C-3.7 2.2 -4.3 0.3 -3.8 -1.2C-3.3 -2.6 -1.7 -3.6 -0.1 -3.6C1.5 -3.6 3 -2.5 3.5 -0.9Z" fill="#fafafa"></path></g><g transform="translate(660 452)"><path d="M5.8 -2C6.5 0.4 5.5 3.3 3.5 4.7C1.6 6.1 -1.4 6.1 -3.2 4.7C-5.1 3.3 -5.8 0.6 -5.1 -1.8C-4.4 -4.3 -2.2 -6.4 0.2 -6.4C2.5 -6.5 5 -4.5 5.8 -2Z" fill="#fafafa"></path></g><g transform="translate(110 292)"><path d="M3.9 -1.3C4.4 0.1 3.6 2 2.2 3C0.7 4 -1.3 4.2 -2.6 3.3C-4 2.4 -4.8 0.3 -4.2 -1.2C-3.7 -2.7 -1.8 -3.7 -0.1 -3.7C1.7 -3.6 3.5 -2.7 3.9 -1.3Z" fill="#fafafa"></path></g><g transform="translate(732 423)"><path d="M2 -0.7C2.3 0.1 1.9 1.1 1.2 1.5C0.5 2 -0.5 2 -1.1 1.5C-1.8 1 -2.1 0.1 -1.9 -0.7C-1.7 -1.5 -0.8 -2.3 0 -2.3C0.9 -2.3 1.8 -1.6 2 -0.7Z" fill="#fafafa"></path></g><g transform="translate(32 329)"><path d="M4.9 -1.6C5.7 0.7 5.1 3.5 3.4 4.7C1.7 6 -1.1 5.7 -3.1 4.3C-5.1 2.9 -6.2 0.2 -5.5 -2C-4.9 -4.2 -2.4 -6 -0.2 -6C2.1 -5.9 4.2 -4 4.9 -1.6Z" fill="#fafafa"></path></g><g transform="translate(270 530)"><path d="M6.4 -2.1C7.1 0.2 5.8 3.2 3.7 4.6C1.5 6 -1.4 5.9 -3.2 4.6C-5 3.2 -5.8 0.5 -5.1 -1.7C-4.4 -3.9 -2.2 -5.7 0.3 -5.8C2.8 -5.9 5.7 -4.3 6.4 -2.1Z" fill="#fafafa"></path></g><g transform="translate(737 467)"><path d="M8.4 -2.8C9.5 0.7 8 4.9 5.2 6.8C2.4 8.8 -1.8 8.6 -4.6 6.5C-7.3 4.5 -8.6 0.6 -7.6 -2.7C-6.6 -6 -3.3 -8.7 0.2 -8.8C3.6 -8.9 7.3 -6.2 8.4 -2.8Z" fill="#fafafa"></path></g><g transform="translate(639 541)"><path d="M1.7 -0.6C2 0.2 1.7 1.1 1.1 1.6C0.4 2.1 -0.6 2.1 -1.2 1.7C-1.9 1.2 -2.2 0.2 -1.9 -0.6C-1.6 -1.5 -0.8 -2.2 0 -2.2C0.8 -2.2 1.5 -1.5 1.7 -0.6Z" fill="#fafafa"></path></g><g transform="translate(183 139)"><path d="M2 -0.7C2.3 0.1 1.8 1 1.1 1.5C0.4 2 -0.6 2 -1.3 1.6C-2 1.1 -2.4 0.1 -2.1 -0.7C-1.9 -1.5 -0.9 -2.2 0 -2.2C0.9 -2.2 1.8 -1.5 2 -0.7Z" fill="#fafafa"></path></g><g transform="translate(406 332)"><path d="M4.3 -1.4C4.8 0.2 4 2.3 2.5 3.3C1.1 4.3 -1 4.3 -2.4 3.2C-3.9 2.2 -4.7 0.2 -4.2 -1.4C-3.7 -3.1 -1.8 -4.4 0 -4.4C1.9 -4.4 3.8 -3.1 4.3 -1.4Z" fill="#fafafa"></path></g><g transform="translate(716 111)"><path d="M5.6 -1.8C6.4 0.6 5.6 3.6 3.6 5C1.6 6.5 -1.5 6.4 -3.6 4.9C-5.7 3.4 -6.8 0.4 -6 -2C-5.2 -4.4 -2.6 -6.3 -0.1 -6.2C2.4 -6.2 4.8 -4.3 5.6 -1.8Z" fill="#fafafa"></path></g><g transform="translate(467 419)"><path d="M1.8 -0.5C2.1 0.3 1.9 1.3 1.3 1.8C0.7 2.3 -0.4 2.1 -1.1 1.6C-1.9 1.1 -2.2 0.1 -2 -0.7C-1.7 -1.4 -0.9 -2.1 -0.1 -2C0.8 -2 1.5 -1.4 1.8 -0.5Z" fill="#fafafa"></path></g><g transform="translate(240 362)"><path d="M5.6 -2.1C6.2 0 4.9 2.5 2.9 3.8C1 5.2 -1.6 5.5 -3.3 4.3C-5.1 3.1 -6 0.4 -5.3 -1.8C-4.6 -4 -2.3 -5.8 0.1 -5.9C2.5 -5.9 5 -4.2 5.6 -2.1Z" fill="#fafafa"></path></g><g transform="translate(497 545)"><path d="M2.5 -0.8C2.8 0.2 2.3 1.4 1.4 2.1C0.5 2.8 -0.9 2.9 -1.8 2.3C-2.7 1.7 -3.2 0.3 -2.8 -0.8C-2.4 -1.9 -1.2 -2.7 -0.1 -2.7C1.1 -2.6 2.2 -1.8 2.5 -0.8Z" fill="#fafafa"></path></g><g transform="translate(216 211)"><path d="M4.8 -1.4C5.5 0.8 5 3.5 3.4 4.7C1.7 5.9 -1.1 5.6 -3 4.2C-4.9 2.8 -6 0.2 -5.4 -1.7C-4.7 -3.7 -2.4 -5.2 -0.2 -5.1C2 -5.1 4 -3.5 4.8 -1.4Z" fill="#fafafa"></path></g><g transform="translate(320 543)"><path d="M6.4 -1.8C7.3 0.6 6.3 3.9 4.2 5.3C2.2 6.6 -0.9 6 -3.1 4.4C-5.3 2.8 -6.5 0.1 -5.9 -1.9C-5.2 -4 -2.6 -5.5 0.1 -5.5C2.8 -5.5 5.6 -4.1 6.4 -1.8Z" fill="#fafafa"></path></g><g transform="translate(670 487)"><path d="M5.1 -1.8C5.7 0.2 4.6 2.6 2.9 3.8C1.2 5 -1.2 5 -3.1 3.8C-4.9 2.6 -6.2 0.1 -5.6 -2C-5 -4 -2.5 -5.6 -0.1 -5.6C2.2 -5.5 4.4 -3.8 5.1 -1.8Z" fill="#fafafa"></path></g><g transform="translate(139 370)"><path d="M6.4 -1.7C7.3 0.9 6.5 4.4 4.3 6C2.1 7.6 -1.5 7.3 -3.9 5.5C-6.3 3.7 -7.5 0.4 -6.7 -2C-5.8 -4.5 -2.9 -6.1 -0.1 -6.1C2.7 -6 5.4 -4.3 6.4 -1.7Z" fill="#fafafa"></path></g><g transform="translate(579 388)"><path d="M6.3 -1.9C7.2 0.5 6.1 3.8 4 5.3C1.8 6.9 -1.5 6.7 -3.7 5.1C-5.8 3.5 -6.8 0.5 -6 -1.9C-5.2 -4.2 -2.6 -5.9 0.1 -5.9C2.7 -5.9 5.5 -4.3 6.3 -1.9Z" fill="#fafafa"></path></g><g transform="translate(134 458)"><path d="M4.3 -1.4C4.7 0.1 3.8 2.1 2.3 3.2C0.8 4.3 -1.4 4.6 -2.8 3.6C-4.2 2.6 -4.9 0.4 -4.3 -1.2C-3.7 -2.9 -1.9 -3.9 0 -3.9C1.9 -3.9 3.8 -2.9 4.3 -1.4Z" fill="#fafafa"></path></g><g transform="translate(703 310)"><path d="M1.8 -0.5C2.1 0.3 1.9 1.4 1.3 1.8C0.7 2.2 -0.3 2 -1.1 1.5C-1.8 0.9 -2.3 0 -2.1 -0.7C-1.9 -1.5 -0.9 -2.1 -0.1 -2.1C0.8 -2 1.5 -1.4 1.8 -0.5Z" fill="#fafafa"></path></g><g transform="translate(661 146)"><path d="M5.8 -1.8C6.6 0.5 5.6 3.5 3.6 5.1C1.5 6.6 -1.8 6.8 -3.8 5.3C-5.7 3.8 -6.4 0.7 -5.6 -1.7C-4.8 -4.1 -2.4 -5.9 0.1 -5.9C2.5 -5.9 5 -4.2 5.8 -1.8Z" fill="#fafafa"></path></g><g transform="translate(154 7)"><path d="M2.1 -0.7C2.3 0.1 1.9 1 1.2 1.5C0.5 2.1 -0.6 2.1 -1.3 1.6C-2 1.1 -2.3 0.1 -2.1 -0.7C-1.8 -1.5 -0.9 -2 0 -2C0.9 -2 1.8 -1.5 2.1 -0.7Z" fill="#fafafa"></path></g><g transform="translate(633 158)"><path d="M3.6 -1.1C4 0.3 3.4 2.1 2.2 3C0.9 3.9 -1 4 -2.2 3.1C-3.5 2.2 -4 0.3 -3.5 -1C-3.1 -2.4 -1.5 -3.3 0 -3.3C1.5 -3.3 3.1 -2.4 3.6 -1.1Z" fill="#fafafa"></path></g><g transform="translate(11 154)"><path d="M4.2 -1.5C4.7 0.1 3.8 2.1 2.4 3.1C0.9 4.1 -1.1 4.2 -2.3 3.2C-3.6 2.3 -4.1 0.4 -3.6 -1.3C-3.1 -3 -1.5 -4.5 0.2 -4.6C1.9 -4.6 3.7 -3.2 4.2 -1.5Z" fill="#fafafa"></path></g><g transform="translate(48 284)"><path d="M6.7 -2C7.6 0.5 6.4 3.9 4 5.7C1.6 7.5 -2.1 7.7 -4.3 6.1C-6.6 4.4 -7.4 0.9 -6.4 -1.8C-5.5 -4.4 -2.7 -6.2 0.1 -6.2C2.9 -6.2 5.8 -4.5 6.7 -2Z" fill="#fafafa"></path></g><g transform="translate(207 238)"><path d="M2.5 -0.9C2.8 0.2 2.3 1.4 1.5 2C0.6 2.6 -0.7 2.7 -1.6 2.1C-2.5 1.5 -3 0.2 -2.6 -0.9C-2.3 -2 -1.1 -2.8 0 -2.8C1.1 -2.8 2.2 -1.9 2.5 -0.9Z" fill="#fafafa"></path></g><g transform="translate(143 42)"><path d="M6.1 -2C7 0.9 6.3 4.4 4.3 5.8C2.3 7.2 -1.1 6.7 -3.3 5C-5.5 3.3 -6.4 0.4 -5.7 -2.2C-5 -4.9 -2.5 -7.5 0 -7.5C2.6 -7.5 5.1 -5 6.1 -2Z" fill="#fafafa"></path></g><g transform="translate(518 318)"><path d="M1.9 -0.6C2.2 0.1 1.8 1.1 1.2 1.6C0.5 2.1 -0.5 2.1 -1.2 1.6C-1.9 1.1 -2.3 0.1 -2.1 -0.7C-1.8 -1.5 -0.9 -2.1 0 -2C0.8 -2 1.7 -1.4 1.9 -0.6Z" fill="#fafafa"></path></g><g transform="translate(773 20)"><path d="M6.5 -1.9C7.4 0.6 6.4 4 4.2 5.6C1.9 7.2 -1.5 7 -3.9 5.2C-6.3 3.5 -7.8 0.3 -6.9 -2.1C-6.1 -4.5 -3.1 -6.1 -0.1 -6C2.8 -6 5.7 -4.4 6.5 -1.9Z" fill="#fafafa"></path></g></g></svg>