<svg id="visual" viewBox="0 0 900 900" width="900" height="900" xmlns="http://www.w3.org/2000/svg" xmlns:xlink="http://www.w3.org/1999/xlink" version="1.1"><rect x="0" y="0" width="900" height="900" fill="#0b243f"></rect><defs><linearGradient id="grad1_0" x1="0%" y1="0%" x2="100%" y2="100%"><stop offset="30%" stop-color="#0b243f" stop-opacity="1"></stop><stop offset="70%" stop-color="#0b243f" stop-opacity="1"></stop></linearGradient></defs><defs><linearGradient id="grad2_0" x1="0%" y1="0%" x2="100%" y2="100%"><stop offset="30%" stop-color="#0b243f" stop-opacity="1"></stop><stop offset="70%" stop-color="#0b243f" stop-opacity="1"></stop></linearGradient></defs><g transform="translate(900, 0)"><path d="M0 286.4C-22.5 246.2 -45.1 206 -81.9 197.7C-118.7 189.4 -169.8 213 -202.5 202.5C-235.2 192 -249.6 147.4 -260.5 107.9C-271.5 68.5 -278.9 34.2 -286.4 0L0 0Z" fill="#f32954"></path></g><g transform="translate(0, 900)"><path d="M0 -286.4C28.4 -259.8 56.7 -233.1 92.2 -222.7C127.7 -212.2 170.4 -217.9 201.5 -201.5C232.7 -185.2 252.4 -146.8 264.6 -109.6C276.8 -72.3 281.6 -36.2 286.4 0L0 0Z" fill="#f32954"></path></g></svg>