<?xml version="1.0" encoding="UTF-8"?><svg id="Layer_1" xmlns="http://www.w3.org/2000/svg" width="790.44" height="125.3" viewBox="0 0 790.44 125.3"><defs><style>.cls-1{fill:#fff;}</style></defs><path class="cls-1" d="M142.1,46.89c2.12,3.71,2.07,8.62-.16,14.74-2.62,7.21-6.37,12.78-11.24,16.73-4.87,3.94-10.47,5.91-16.79,5.91h-7.14l15.63-42.94h7.04c6.32,0,10.54,1.86,12.66,5.56Z"/><path class="cls-1" d="M624.21,43.63c-1.16-1.67-3.27-2.5-6.33-2.5h-7.75l-7.05,19.38h7.44c6.8,0,11.42-3.33,13.84-10,1.06-2.92,1.02-5.22-.15-6.88Zm0,0c-1.16-1.67-3.27-2.5-6.33-2.5h-7.75l-7.05,19.38h7.44c6.8,0,11.42-3.33,13.84-10,1.06-2.92,1.02-5.22-.15-6.88ZM45.91,0L0,125.3H744.53L790.44,0H45.91Zm111.94,61.63c-4.01,11.02-10.41,19.69-19.21,26.01-8.79,6.32-18.53,9.49-29.2,9.49h-23.46L111,28.38h23.66c10.34,0,17.65,3.18,21.93,9.54,4.28,6.35,4.7,14.26,1.26,23.71Zm47.84,29.43c-6.76,4.72-14.41,7.09-22.98,7.09s-14.35-2.35-17.74-7.04-3.53-11.32-.41-19.89l15.59-42.84h15.71l-15.55,42.74c-3.1,8.5-.56,12.75,7.6,12.75s13.84-4.42,17.06-13.26l15.37-42.23h15.71l-15.33,42.12c-3.27,8.98-8.28,15.83-15.03,20.56Zm68.1-13.93c-2.25,6.19-6.36,11.21-12.31,15.05-5.95,3.84-12.7,5.76-20.25,5.76-8.09,0-14.17-1.43-18.23-4.28l5.75-15.81c4.56,4.49,10.34,6.73,17.34,6.73,2.38,0,4.58-.63,6.6-1.89,2.03-1.25,3.41-2.9,4.15-4.94,.25-.68,.38-1.33,.4-1.94,.02-.61-.15-1.19-.49-1.74-.35-.54-.71-1-1.08-1.37-.37-.38-.96-.82-1.76-1.33s-1.48-.93-2.04-1.27c-.55-.34-1.38-.82-2.49-1.43-1.1-.61-2-1.09-2.69-1.43-3.68-2.04-6.31-4.56-7.91-7.55s-1.49-6.97,.31-11.93c2.16-5.92,6.07-10.69,11.75-14.33,5.67-3.64,12.35-5.46,20.04-5.46,6.87,0,12.36,1.16,16.48,3.47l-5.34,14.69c-4.35-3.2-9.48-4.8-15.39-4.8-2.66,0-4.88,.55-6.67,1.63-1.79,1.09-2.99,2.49-3.61,4.19s-.32,3.21,.9,4.53c1.21,1.33,3.25,2.74,6.11,4.24,1.76,.95,3.21,1.78,4.34,2.5,1.14,.71,2.37,1.7,3.72,2.95,1.34,1.26,2.29,2.59,2.84,3.98,.54,1.4,.82,3.11,.82,5.15,.01,2.04-.42,4.25-1.29,6.63Zm52.43,0c-2.25,6.19-6.36,11.21-12.31,15.05-5.96,3.84-12.71,5.76-20.25,5.76-8.1,0-14.17-1.43-18.23-4.28l5.75-15.81c4.55,4.49,10.33,6.73,17.34,6.73,2.38,0,4.58-.63,6.6-1.89,2.02-1.25,3.41-2.9,4.15-4.94,.24-.68,.38-1.33,.4-1.94,.02-.61-.15-1.19-.49-1.74-.35-.54-.71-1-1.08-1.37s-.97-.82-1.76-1.33c-.81-.51-1.48-.93-2.04-1.27-.56-.34-1.39-.82-2.49-1.43-1.1-.61-2-1.09-2.69-1.43-3.68-2.04-6.32-4.56-7.91-7.55-1.6-2.99-1.5-6.97,.31-11.93,2.15-5.92,6.07-10.69,11.74-14.33,5.68-3.64,12.36-5.46,20.04-5.46,6.87,0,12.37,1.16,16.49,3.47l-5.35,14.69c-4.34-3.2-9.47-4.8-15.39-4.8-2.65,0-4.87,.55-6.66,1.63-1.79,1.09-2.99,2.49-3.61,4.19s-.32,3.21,.89,4.53c1.22,1.33,3.26,2.74,6.11,4.24,1.77,.95,3.21,1.78,4.35,2.5,1.13,.71,2.37,1.7,3.72,2.95,1.34,1.26,2.28,2.59,2.83,3.98,.55,1.4,.82,3.11,.83,5.15,0,2.04-.42,4.25-1.29,6.63Zm52.13-8.16h-23.66l-5.68,15.61h26.93l-4.57,12.55h-42.74l25.02-68.75h42.33l-4.56,12.54h-26.52l-5.68,15.61h23.66l-4.53,12.44Zm46.88,28.16h-41.11l25.02-68.75h15.71l-20.01,54.98h25.4l-5.01,13.77Zm70.23-6.33c-8.26,4.76-17.36,7.14-27.29,7.14-11.01,0-18.8-3.16-23.37-9.48-4.57-6.33-4.87-14.93-.91-25.81,3.91-10.74,10.63-19.35,20.16-25.81,9.52-6.46,19.79-9.69,30.81-9.69,7.75,0,13.93,1.43,18.53,4.29l-5.72,15.71c-5.16-3.74-11.18-5.61-18.05-5.61-6.46,0-12.29,1.92-17.5,5.76-5.2,3.84-8.97,8.96-11.3,15.35-2.35,6.46-2.35,11.6,.01,15.4,2.35,3.81,6.76,5.71,13.22,5.71,2.92,0,5.97-.44,9.15-1.32l4.72-12.96h-11.12l4.86-13.36h26.42l-12.62,34.68Zm60.49,.26c-6.75,4.72-14.41,7.09-22.98,7.09s-14.34-2.35-17.73-7.04c-3.4-4.69-3.53-11.32-.41-19.89l15.59-42.84h15.71l-15.56,42.74c-3.09,8.5-.56,12.75,7.6,12.75s13.85-4.42,17.07-13.26l15.37-42.23h15.7l-15.33,42.12c-3.27,8.98-8.28,15.83-15.03,20.56Zm72.25,6.07h-18.76l-6.21-23.87h-4.79l-8.69,23.87h-15.71l25.02-68.75h23.77c7.68,0,13.11,2.04,16.29,6.12,3.17,4.08,3.57,9.38,1.19,15.91-3.56,9.79-10.21,16.56-19.93,20.3l7.82,26.42Zm74.74-46.72c-3.56,9.79-10.21,16.56-19.94,20.3l7.83,26.42h-18.77l-6.2-23.87h-4.8l-8.68,23.87h-15.71l25.02-68.75h23.77c7.68,0,13.11,2.04,16.28,6.12,3.18,4.08,3.57,9.38,1.2,15.91Zm-22.43-9.28h-7.75l-7.05,19.38h7.44c6.8,0,11.41-3.33,13.84-10,1.06-2.92,1.01-5.22-.15-6.88-1.16-1.67-3.27-2.5-6.33-2.5Zm-62.63,0h-7.75l-7.05,19.38h7.44c6.8,0,11.42-3.33,13.84-10,1.06-2.92,1.02-5.22-.15-6.88-1.16-1.67-3.27-2.5-6.33-2.5Z"/></svg>